Description

Sinopse e detalhes

Em abril de 1910, na geografia desértica do sertão brasileiro vive Tonho (Rodrigo Santoro) e sua família. Tonho vive atualmente uma grande dúvida, pois ao mesmo tempo que é impelido por seu pai (José Dumont) para vingar a morte de seu irmão mais velho, assassinado por uma família rival, sabe que caso se vingue será perseguido e terá pouco tempo de vida. Angustiado pela perspectiva da morte, Tonho passa então a questionar a lógica da violência e da tradição.

Format : Matroska
Format version : Version 2
File size : 372 MiB
Duration : 1h 35mn
Overall bit rate : 546 Kbps
Encoded date : UTC 2013-05-07 12:35:00
Writing application : mkvmerge v6.1.0 ('Old Devil') built on Mar 2 2013 14:32:37
Writing library : libebml v1.3.0 + libmatroska v1.4.0

Video
ID : 1
Format : AVC
Format/Info : Advanced Video Codec
Format profile : High@L4.1
Format settings, CABAC : Yes
Format settings, ReFrames : 4 frames
Codec ID : V_MPEG4/ISO/AVC
Duration : 1h 35mn
Bit rate : 343 Kbps
Width : 720 pixels
Height : 224 pixels
Display aspect ratio : 3.214
Frame rate mode : Constant
Frame rate : 23.976 fps
Color space : YUV
Chroma subsampling : 4:2:0
Bit depth : 8 bits
Scan type : Progressive
Bits/(Pixel*Frame) : 0.089
Stream size : 234 MiB (63%)
Writing library : x264 core 130 r2273 b3065e6
Encoding settings : cabac=1 / ref=3 / deblock=1:0:0 / analyse=0x3:0x113 / me=hex / subme=7 / psy=1 / psy_rd=1.00:0.00 / mixed_ref=1 / me_range=16 / chroma_me=1 / trellis=1 / 8x8dct=1 / cqm=0 / deadzone=21,11 / fast_pskip=1 / chroma_qp_offset=-2 / threads=3 / lookahead_threads=1 / sliced_threads=0 / nr=0 / decimate=1 / interlaced=0 / bluray_compat=0 / constrained_intra=0 / bframes=3 / b_pyramid=2 / b_adapt=1 / b_bias=0 / direct=1 / weightb=1 / open_gop=0 / weightp=2 / keyint=240 / keyint_min=23 / scenecut=40 / intra_refresh=0 / rc_lookahead=40 / rc=crf / mbtree=1 / crf=23.0 / qcomp=0.60 / qpmin=0 / qpmax=69 / qpstep=4 / vbv_maxrate=62500 / vbv_bufsize=78125 / crf_max=0.0 / nal_hrd=none / ip_ratio=1.40 / aq=1:1.00
Default : Yes
Forced : No

Audio
ID : 2
Format : AC-3
Format/Info : Audio Coding 3
Mode extension : CM (complete main)
Format settings, Endianness : Big
Codec ID : A_AC3
Duration : 1h 35mn
Bit rate mode : Constant
Bit rate : 192 Kbps
Channel(s) : 2 channels
Channel positions : Front: L R
Sampling rate : 48.0 KHz
Bit depth : 16 bits
Compression mode : Lossy
Stream size : 131 MiB (35%)
Title : by fantasma
Language : Portuguese
Default : Yes
Forced : No

Text #1
ID : 3
Format : VobSub
Muxing mode : zlib
Codec ID : S_VOBSUB
Codec ID/Info : The same subtitle format used on DVDs
Title : by fantasma
Language : Portuguese
Default : No
Forced : No

Text #2
ID : 4
Format : VobSub
Muxing mode : zlib
Codec ID : S_VOBSUB
Codec ID/Info : The same subtitle format used on DVDs
Title : by fantasma
Language : English
Default : No
Forced : No

Text #3
ID : 5
Format : VobSub
Muxing mode : zlib
Codec ID : S_VOBSUB
Codec ID/Info : The same subtitle format used on DVDs
Title : by fantasma
Language : French
Default : No
Forced : No

Menu
00:00:00.000 : en:Chapter 01
00:05:37.734 : en:Chapter 02
00:12:21.668 : en:Chapter 03
00:21:20.235 : en:Chapter 04
00:28:37.235 : en:Chapter 05
00:35:18.569 : en:Chapter 06
00:42:54.203 : en:Chapter 07
00:50:57.537 : en:Chapter 08
01:00:37.837 : en:Chapter 09
01:06:52.638 : en:Chapter 10
01:13:35.038 : en:Chapter 11
01:20:52.173 : en:Chapter 12
01:31:36.373 : en:Chapter 13